<svg xmlns="http://www.w3.org/2000/svg" width="512" height="512" viewBox="0 0 512 512">
  <rect width="512" height="512" fill="#4F46E5" rx="0"/>

  <!-- Background circle (non-maskable only) -->
  

  <!-- Receipt shadow -->
  <rect x="155.64800000000002" y="124.928" width="212.99200000000002" height="278.528" rx="12.288" fill="rgba(0,0,0,0.15)"/>

  <!-- Receipt body -->
  <path d="M161.79200000000003,116.736 L350.208,116.736
           Q362.49600000000004,116.736 362.49600000000004,129.024
           L362.49600000000004,395.264 L167.25333333333336,405.504 L185.0026666666667,395.264 L202.75200000000004,405.504 L220.50133333333338,395.264 L238.25066666666672,405.504 L256,395.264 L273.7493333333333,405.504 L291.49866666666674,395.264 L309.24800000000005,405.504 L326.99733333333336,395.264 L344.74666666666667,405.504 L362.49600000000004,395.264 
           L149.50400000000002,395.264
           L149.50400000000002,129.024
           Q149.50400000000002,116.736 161.79200000000003,116.736 Z"
        fill="white"/>

  <!-- Receipt lines -->
  <rect x="187.84256000000002" y="178.01216" width="103.8046446590471" height="9.0112" rx="4.5056" fill="#C7D2FE"/>
  <rect x="187.84256000000002" y="218.39872000000003" width="111.49022454389025" height="9.0112" rx="4.5056" fill="#C7D2FE"/>
  <rect x="187.84256000000002" y="258.78528" width="118.34152463289045" height="9.0112" rx="4.5056" fill="#E0E7FF"/>
  <rect x="187.84256000000002" y="299.17184" width="61.341696000000006" height="9.0112" rx="4.5056" fill="#E0E7FF"/>

  <!-- Dotted line above total -->
  <line x1="181.45280000000002" y1="320.06144" x2="330.54720000000003" y2="320.06144"
        stroke="#C7D2FE" stroke-width="4.9152000000000005" stroke-dasharray="8.192 6.144"/>

  <!-- Total line (bolder) -->
  <rect x="234.70080000000002" y="336.77312" width="89.45664000000001" height="11.468800000000002" rx="5.734400000000001" fill="#4F46E5"/>

  <!-- Split symbol: two arrows pointing apart -->
  <g transform="translate(315.63776000000007, 139.01824)">
    <!-- Scissors / split icon -->
    <circle cx="0" cy="0" r="26.624000000000002" fill="#4F46E5"/>
    <line x1="-12.288" y1="-8.192" x2="12.288" y2="8.192" stroke="white" stroke-width="5.734400000000001" stroke-linecap="round"/>
    <line x1="12.288" y1="-8.192" x2="-12.288" y2="8.192" stroke="white" stroke-width="5.734400000000001" stroke-linecap="round"/>
  </g>
</svg>