<svg xmlns="http://www.w3.org/2000/svg" width="512" height="512" viewBox="0 0 512 512">
  

  <!-- Background circle (non-maskable only) -->
  <circle cx="256" cy="256" r="256" fill="#4F46E5"/>

  <!-- Receipt shadow -->
  <rect x="130.56" y="92.15999999999998" width="266.24" height="348.16" rx="15.36" fill="rgba(0,0,0,0.15)"/>

  <!-- Receipt body -->
  <path d="M138.24,81.91999999999999 L373.76,81.91999999999999
           Q389.12,81.91999999999999 389.12,97.27999999999999
           L389.12,430.08000000000004 L145.06666666666666,442.88000000000005 L167.25333333333333,430.08000000000004 L189.44,442.88000000000005 L211.62666666666667,430.08000000000004 L233.81333333333333,442.88000000000005 L256,430.08000000000004 L278.18666666666667,442.88000000000005 L300.37333333333333,430.08000000000004 L322.56,442.88000000000005 L344.74666666666667,430.08000000000004 L366.93333333333334,442.88000000000005 L389.12,430.08000000000004 
           L122.88,430.08000000000004
           L122.88,97.27999999999999
           Q122.88,81.91999999999999 138.24,81.91999999999999 Z"
        fill="white"/>

  <!-- Receipt lines -->
  <rect x="170.8032" y="158.5152" width="129.97204335121188" height="11.264" rx="5.632" fill="#C7D2FE"/>
  <rect x="170.8032" y="208.9984" width="137.16193891805196" height="11.264" rx="5.632" fill="#C7D2FE"/>
  <rect x="170.8032" y="259.4816" width="153.4905842766914" height="11.264" rx="5.632" fill="#E0E7FF"/>
  <rect x="170.8032" y="309.96479999999997" width="76.67712000000002" height="11.264" rx="5.632" fill="#E0E7FF"/>

  <!-- Dotted line above total -->
  <line x1="162.816" y1="336.0768" x2="349.18399999999997" y2="336.0768"
        stroke="#C7D2FE" stroke-width="6.144" stroke-dasharray="10.24 7.68"/>

  <!-- Total line (bolder) -->
  <rect x="229.376" y="356.9664" width="111.8208" height="14.336" rx="7.168" fill="#4F46E5"/>

  <!-- Split symbol: two arrows pointing apart -->
  <g transform="translate(330.5472, 109.77279999999999)">
    <!-- Scissors / split icon -->
    <circle cx="0" cy="0" r="33.28" fill="#4F46E5"/>
    <line x1="-15.36" y1="-10.24" x2="15.36" y2="10.24" stroke="white" stroke-width="7.168" stroke-linecap="round"/>
    <line x1="15.36" y1="-10.24" x2="-15.36" y2="10.24" stroke="white" stroke-width="7.168" stroke-linecap="round"/>
  </g>
</svg>